# xmcd
#
# Track frame offsets:
#	150
#	21273
#	37735
#	59643
#	77187
#	98819
#	115530
#	133655
#	150014
#	164259
#	180159
#	198717
#	219509
#	236950
#	253677
#
# Disc length: 3630 seconds
#
# Revision: 1
# Processed by: cddbd v1.5.2PL0 Copyright (c) Steve Scherf et al.
# Submitted via: audiograbber 1.83.01
#
DISCID=c00e2c0f
DTITLE=Various Artist - CB-E8-09
DYEAR=1900
DGENRE=Karaoke
TTITLE0=Rascal Flatts - Life Is A Highway
TTITLE1=Kenny Chesney - Summertime
TTITLE2=Carrie Underwood - Wasted
TTITLE3=Dierks Bentley - Settle For A Slowdown
TTITLE4=Sara Evans - You'll Always Be My Baby
TTITLE5=Heartland - I Loved Her First
TTITLE6=Keith Urban - Stupid Boy
TTITLE7=Sugarland - Want To
TTITLE8=Toby Keith - Get Drunk And Be Somebody
TTITLE9=Jason Aldean - Amarillo Sky
TTITLE10=Taylor Swift - Tim McGraw
TTITLE11=Jason Michael Carroll - Alyssa Lies
TTITLE12=Alan Jackson - Like Red On A Rose
TTITLE13=Wreckers, The - Leave The Pieces
TTITLE14=Joe Nichols - I'll Wait For You
EXTD=
EXTT0=
EXTT1=
EXTT2=
EXTT3=
EXTT4=
EXTT5=
EXTT6=
EXTT7=
EXTT8=
EXTT9=
EXTT10=
EXTT11=
EXTT12=
EXTT13=
EXTT14=
PLAYORDER=
